# xmcd
# 
# Track frame offsets:
#     150
#     15840
#     29469
#     40992
#     53965
#     65464
#     78190
#     91915
#     107272
#     118525
#     131715
#     143260
#     157459
#     173567
# 
# Disc length: 2684
# 
# Revision: 3
# Processed by: cddbd v1.5.2PL0 Copyright (c) Steve Scherf et al.
# Submitted via: fre:ac v1.0.17
# 
DISCID=a80a7a0e
DTITLE=B.B. King - B.B. Blues for Clapton
DYEAR=0
DGENRE=Blues
TTITLE0=Five Long Years
TTITLE1=Rock Me Baby
TTITLE2=Eyesight To The Blind
TTITLE3=Goin' Down Slow
TTITLE4=Mean Ole Frisco
TTITLE5=Ten Long Years
TTITLE6=Three O'Clock Blues
TTITLE7=Worried Life Blues
TTITLE8=Days Of Old
TTITLE9=When My Heart Beats Like A Hammer
TTITLE10=It's A Mean World (Mean Old World)
TTITLE11=Whole Lotta' Love
TTITLE12=My Own Fault Baby
TTITLE13=Sweet Sixteen
EXTD=Blues and Soul Records Vol.34
EXTT0=
EXTT1=
EXTT2=
EXTT3=
EXTT4=
EXTT5=
EXTT6=
EXTT7=
EXTT8=
EXTT9=
EXTT10=
EXTT11=
EXTT12=
EXTT13=
PLAYORDER=
